<svg id="visual" viewBox="0 0 900 600" width="900" height="600" xmlns="http://www.w3.org/2000/svg" xmlns:xlink="http://www.w3.org/1999/xlink" version="1.1"><rect x="0" y="0" width="900" height="600" fill="#d2e4eb"></rect><defs><linearGradient id="grad1_0" x1="33.3%" y1="0%" x2="100%" y2="100%"><stop offset="20%" stop-color="#83a7ea" stop-opacity="1"></stop><stop offset="80%" stop-color="#83a7ea" stop-opacity="1"></stop></linearGradient></defs><defs><linearGradient id="grad1_1" x1="33.3%" y1="0%" x2="100%" y2="100%"><stop offset="20%" stop-color="#83a7ea" stop-opacity="1"></stop><stop offset="80%" stop-color="#9dc9eb" stop-opacity="1"></stop></linearGradient></defs><defs><linearGradient id="grad1_2" x1="33.3%" y1="0%" x2="100%" y2="100%"><stop offset="20%" stop-color="#d2e4eb" stop-opacity="1"></stop><stop offset="80%" stop-color="#9dc9eb" stop-opacity="1"></stop></linearGradient></defs><defs><linearGradient id="grad2_0" x1="0%" y1="0%" x2="66.7%" y2="100%"><stop offset="20%" stop-color="#83a7ea" stop-opacity="1"></stop><stop offset="80%" stop-color="#83a7ea" stop-opacity="1"></stop></linearGradient></defs><defs><linearGradient id="grad2_1" x1="0%" y1="0%" x2="66.7%" y2="100%"><stop offset="20%" stop-color="#9dc9eb" stop-opacity="1"></stop><stop offset="80%" stop-color="#83a7ea" stop-opacity="1"></stop></linearGradient></defs><defs><linearGradient id="grad2_2" x1="0%" y1="0%" x2="66.7%" y2="100%"><stop offset="20%" stop-color="#9dc9eb" stop-opacity="1"></stop><stop offset="80%" stop-color="#d2e4eb" stop-opacity="1"></stop></linearGradient></defs><g transform="translate(900, 0)"><path d="M0 405.6C-45 400.1 -90 394.5 -119.9 369C-149.8 343.5 -164.7 298 -201.6 277.5C-238.6 257 -297.6 261.6 -328.2 238.4C-358.7 215.2 -360.8 164.3 -369 119.9C-377.2 75.5 -391.4 37.8 -405.6 0L0 0Z" fill="#b5d7ea"></path><path d="M0 270.4C-30 266.7 -60 263 -79.9 246C-99.9 229 -109.8 198.6 -134.4 185C-159 171.4 -198.4 174.4 -218.8 158.9C-239.2 143.5 -240.6 109.5 -246 79.9C-251.5 50.4 -260.9 25.2 -270.4 0L0 0Z" fill="#8bb9eb"></path><path d="M0 135.2C-15 133.4 -30 131.5 -40 123C-49.9 114.5 -54.9 99.3 -67.2 92.5C-79.5 85.7 -99.2 87.2 -109.4 79.5C-119.6 71.7 -120.3 54.8 -123 40C-125.7 25.2 -130.5 12.6 -135.2 0L0 0Z" fill="#83a7ea"></path></g><g transform="translate(0, 600)"><path d="M0 -405.6C34.6 -371.7 69.2 -337.8 105.1 -323.4C140.9 -308.9 178.1 -313.9 222.2 -305.8C266.3 -297.7 317.3 -276.6 328.2 -238.4C339 -200.3 309.5 -145.2 315.8 -102.6C322 -60 363.8 -30 405.6 0L0 0Z" fill="#b5d7ea"></path><path d="M0 -270.4C23.1 -247.8 46.1 -225.2 70 -215.6C94 -205.9 118.7 -209.3 148.1 -203.9C177.5 -198.5 211.6 -184.4 218.8 -158.9C226 -133.5 206.4 -96.8 210.5 -68.4C214.6 -40 242.5 -20 270.4 0L0 0Z" fill="#8bb9eb"></path><path d="M0 -135.2C11.5 -123.9 23.1 -112.6 35 -107.8C47 -103 59.4 -104.6 74.1 -101.9C88.8 -99.2 105.8 -92.2 109.4 -79.5C113 -66.8 103.2 -48.4 105.3 -34.2C107.3 -20 121.3 -10 135.2 0L0 0Z" fill="#83a7ea"></path></g></svg>