<svg id="visual" viewBox="0 0 900 600" width="900" height="600" xmlns="http://www.w3.org/2000/svg" xmlns:xlink="http://www.w3.org/1999/xlink" version="1.1"><rect x="0" y="0" width="900" height="600" fill="#5398de"></rect><path d="M0 211L21.5 213.2C43 215.3 86 219.7 128.8 213.7C171.7 207.7 214.3 191.3 257.2 191.2C300 191 343 207 385.8 202.8C428.7 198.7 471.3 174.3 514.2 171C557 167.7 600 185.3 642.8 199C685.7 212.7 728.3 222.3 771.2 215.3C814 208.3 857 184.7 878.5 172.8L900 161L900 0L878.5 0C857 0 814 0 771.2 0C728.3 0 685.7 0 642.8 0C600 0 557 0 514.2 0C471.3 0 428.7 0 385.8 0C343 0 300 0 257.2 0C214.3 0 171.7 0 128.8 0C86 0 43 0 21.5 0L0 0Z" fill="#c7dbe4"></path><path d="M0 143L21.5 146.7C43 150.3 86 157.7 128.8 153.5C171.7 149.3 214.3 133.7 257.2 133C300 132.3 343 146.7 385.8 147.8C428.7 149 471.3 137 514.2 139.2C557 141.3 600 157.7 642.8 155C685.7 152.3 728.3 130.7 771.2 131C814 131.3 857 153.7 878.5 164.8L900 176L900 0L878.5 0C857 0 814 0 771.2 0C728.3 0 685.7 0 642.8 0C600 0 557 0 514.2 0C471.3 0 428.7 0 385.8 0C343 0 300 0 257.2 0C214.3 0 171.7 0 128.8 0C86 0 43 0 21.5 0L0 0Z" fill="#c8dce5"></path><path d="M0 75L21.5 81.2C43 87.3 86 99.7 128.8 101C171.7 102.3 214.3 92.7 257.2 91.8C300 91 343 99 385.8 102.5C428.7 106 471.3 105 514.2 106.5C557 108 600 112 642.8 110C685.7 108 728.3 100 771.2 96.3C814 92.7 857 93.3 878.5 93.7L900 94L900 0L878.5 0C857 0 814 0 771.2 0C728.3 0 685.7 0 642.8 0C600 0 557 0 514.2 0C471.3 0 428.7 0 385.8 0C343 0 300 0 257.2 0C214.3 0 171.7 0 128.8 0C86 0 43 0 21.5 0L0 0Z" fill="#cadee7"></path><path d="M0 65L21.5 65.7C43 66.3 86 67.7 128.8 67.3C171.7 67 214.3 65 257.2 63.8C300 62.7 343 62.3 385.8 66.5C428.7 70.7 471.3 79.3 514.2 80.7C557 82 600 76 642.8 67.8C685.7 59.7 728.3 49.3 771.2 52.5C814 55.7 857 72.3 878.5 80.7L900 89L900 0L878.5 0C857 0 814 0 771.2 0C728.3 0 685.7 0 642.8 0C600 0 557 0 514.2 0C471.3 0 428.7 0 385.8 0C343 0 300 0 257.2 0C214.3 0 171.7 0 128.8 0C86 0 43 0 21.5 0L0 0Z" fill="#cce0e9"></path></svg>