<svg id="visual" viewBox="0 0 900 450" width="900" height="450" xmlns="http://www.w3.org/2000/svg" xmlns:xlink="http://www.w3.org/1999/xlink" version="1.1"><rect x="0" y="0" width="900" height="450" fill="#001220"></rect><path d="M0 239L7.5 245.2C15 251.3 30 263.7 45 259.5C60 255.3 75 234.7 90 227.5C105 220.3 120 226.7 135 232.5C150 238.3 165 243.7 180 244.7C195 245.7 210 242.3 225 244.3C240 246.3 255 253.7 270 259.8C285 266 300 271 315 260.5C330 250 345 224 360 222.5C375 221 390 244 405 248.5C420 253 435 239 450 235.3C465 231.7 480 238.3 495 246.8C510 255.3 525 265.7 540 262.3C555 259 570 242 585 242.7C600 243.3 615 261.7 630 264.8C645 268 660 256 675 243.8C690 231.7 705 219.3 720 224.5C735 229.7 750 252.3 765 253C780 253.7 795 232.3 810 225C825 217.7 840 224.3 855 225.7C870 227 885 223 892.5 221L900 219L900 0L892.5 0C885 0 870 0 855 0C840 0 825 0 810 0C795 0 780 0 765 0C750 0 735 0 720 0C705 0 690 0 675 0C660 0 645 0 630 0C615 0 600 0 585 0C570 0 555 0 540 0C525 0 510 0 495 0C480 0 465 0 450 0C435 0 420 0 405 0C390 0 375 0 360 0C345 0 330 0 315 0C300 0 285 0 270 0C255 0 240 0 225 0C210 0 195 0 180 0C165 0 150 0 135 0C120 0 105 0 90 0C75 0 60 0 45 0C30 0 15 0 7.5 0L0 0Z" fill="#001120"></path><path d="M0 199L7.5 205.5C15 212 30 225 45 225.3C60 225.7 75 213.3 90 210.3C105 207.3 120 213.7 135 218.3C150 223 165 226 180 229.3C195 232.7 210 236.3 225 231.8C240 227.3 255 214.7 270 210.8C285 207 300 212 315 210.3C330 208.7 345 200.3 360 200.5C375 200.7 390 209.3 405 215.2C420 221 435 224 450 220.5C465 217 480 207 495 200C510 193 525 189 540 189.2C555 189.3 570 193.7 585 192.7C600 191.7 615 185.3 630 183.3C645 181.3 660 183.7 675 187.7C690 191.7 705 197.3 720 205.5C735 213.7 750 224.3 765 222.2C780 220 795 205 810 194.3C825 183.7 840 177.3 855 175.5C870 173.7 885 176.3 892.5 177.7L900 179L900 0L892.5 0C885 0 870 0 855 0C840 0 825 0 810 0C795 0 780 0 765 0C750 0 735 0 720 0C705 0 690 0 675 0C660 0 645 0 630 0C615 0 600 0 585 0C570 0 555 0 540 0C525 0 510 0 495 0C480 0 465 0 450 0C435 0 420 0 405 0C390 0 375 0 360 0C345 0 330 0 315 0C300 0 285 0 270 0C255 0 240 0 225 0C210 0 195 0 180 0C165 0 150 0 135 0C120 0 105 0 90 0C75 0 60 0 45 0C30 0 15 0 7.5 0L0 0Z" fill="#002150"></path><path d="M0 163L7.5 166.5C15 170 30 177 45 175C60 173 75 162 90 163C105 164 120 177 135 181.3C150 185.7 165 181.3 180 180C195 178.7 210 180.3 225 180.2C240 180 255 178 270 175C285 172 300 168 315 164.2C330 160.3 345 156.7 360 153.5C375 150.3 390 147.7 405 149.3C420 151 435 157 450 163.3C465 169.7 480 176.3 495 173.3C510 170.3 525 157.7 540 152.7C555 147.7 570 150.3 585 156.5C600 162.7 615 172.3 630 179.7C645 187 660 192 675 192.7C690 193.3 705 189.7 720 190C735 190.3 750 194.7 765 186.8C780 179 795 159 810 152.5C825 146 840 153 855 153.7C870 154.3 885 148.7 892.5 145.8L900 143L900 0L892.5 0C885 0 870 0 855 0C840 0 825 0 810 0C795 0 780 0 765 0C750 0 735 0 720 0C705 0 690 0 675 0C660 0 645 0 630 0C615 0 600 0 585 0C570 0 555 0 540 0C525 0 510 0 495 0C480 0 465 0 450 0C435 0 420 0 405 0C390 0 375 0 360 0C345 0 330 0 315 0C300 0 285 0 270 0C255 0 240 0 225 0C210 0 195 0 180 0C165 0 150 0 135 0C120 0 105 0 90 0C75 0 60 0 45 0C30 0 15 0 7.5 0L0 0Z" fill="#002b80"></path><path d="M0 138L7.5 136.7C15 135.3 30 132.7 45 128.2C60 123.7 75 117.3 90 117.5C105 117.7 120 124.3 135 130.5C150 136.7 165 142.3 180 146C195 149.7 210 151.3 225 146.8C240 142.3 255 131.7 270 128.7C285 125.7 300 130.3 315 129.2C330 128 345 121 360 122.3C375 123.7 390 133.3 405 137.2C420 141 435 139 450 135.8C465 132.7 480 128.3 495 127.5C510 126.7 525 129.3 540 128.2C555 127 570 122 585 119.2C600 116.3 615 115.7 630 115C645 114.3 660 113.7 675 114.7C690 115.7 705 118.3 720 122.8C735 127.3 750 133.7 765 136.5C780 139.3 795 138.7 810 139.7C825 140.7 840 143.3 855 139.7C870 136 885 126 892.5 121L900 116L900 0L892.5 0C885 0 870 0 855 0C840 0 825 0 810 0C795 0 780 0 765 0C750 0 735 0 720 0C705 0 690 0 675 0C660 0 645 0 630 0C615 0 600 0 585 0C570 0 555 0 540 0C525 0 510 0 495 0C480 0 465 0 450 0C435 0 420 0 405 0C390 0 375 0 360 0C345 0 330 0 315 0C300 0 285 0 270 0C255 0 240 0 225 0C210 0 195 0 180 0C165 0 150 0 135 0C120 0 105 0 90 0C75 0 60 0 45 0C30 0 15 0 7.5 0L0 0Z" fill="#002dac"></path><path d="M0 98L7.5 98C15 98 30 98 45 100.7C60 103.3 75 108.7 90 110.2C105 111.7 120 109.3 135 109.8C150 110.3 165 113.7 180 114.2C195 114.7 210 112.3 225 109.5C240 106.7 255 103.3 270 102.2C285 101 300 102 315 104.5C330 107 345 111 360 113C375 115 390 115 405 110.5C420 106 435 97 450 93.5C465 90 480 92 495 95.8C510 99.7 525 105.3 540 103C555 100.7 570 90.3 585 87C600 83.7 615 87.3 630 89C645 90.7 660 90.3 675 94.3C690 98.3 705 106.7 720 107C735 107.3 750 99.7 765 94.8C780 90 795 88 810 88.5C825 89 840 92 855 96.5C870 101 885 107 892.5 110L900 113L900 0L892.5 0C885 0 870 0 855 0C840 0 825 0 810 0C795 0 780 0 765 0C750 0 735 0 720 0C705 0 690 0 675 0C660 0 645 0 630 0C615 0 600 0 585 0C570 0 555 0 540 0C525 0 510 0 495 0C480 0 465 0 450 0C435 0 420 0 405 0C390 0 375 0 360 0C345 0 330 0 315 0C300 0 285 0 270 0C255 0 240 0 225 0C210 0 195 0 180 0C165 0 150 0 135 0C120 0 105 0 90 0C75 0 60 0 45 0C30 0 15 0 7.5 0L0 0Z" fill="#0027d6"></path><path d="M0 65L7.5 63.5C15 62 30 59 45 59.8C60 60.7 75 65.3 90 66.7C105 68 120 66 135 64.2C150 62.3 165 60.7 180 59.3C195 58 210 57 225 56.2C240 55.3 255 54.7 270 57C285 59.3 300 64.7 315 64.3C330 64 345 58 360 56C375 54 390 56 405 59.3C420 62.7 435 67.3 450 69.2C465 71 480 70 495 68.3C510 66.7 525 64.3 540 62C555 59.7 570 57.3 585 57C600 56.7 615 58.3 630 58.8C645 59.3 660 58.7 675 60.7C690 62.7 705 67.3 720 66.7C735 66 750 60 765 57.5C780 55 795 56 810 57.3C825 58.7 840 60.3 855 60.5C870 60.7 885 59.3 892.5 58.7L900 58L900 0L892.5 0C885 0 870 0 855 0C840 0 825 0 810 0C795 0 780 0 765 0C750 0 735 0 720 0C705 0 690 0 675 0C660 0 645 0 630 0C615 0 600 0 585 0C570 0 555 0 540 0C525 0 510 0 495 0C480 0 465 0 450 0C435 0 420 0 405 0C390 0 375 0 360 0C345 0 330 0 315 0C300 0 285 0 270 0C255 0 240 0 225 0C210 0 195 0 180 0C165 0 150 0 135 0C120 0 105 0 90 0C75 0 60 0 45 0C30 0 15 0 7.5 0L0 0Z" fill="#000fff"></path></svg>