<svg id="visual" viewBox="0 0 900 600" width="900" height="600" xmlns="http://www.w3.org/2000/svg" xmlns:xlink="http://www.w3.org/1999/xlink" version="1.1"><rect x="0" y="0" width="900" height="600" fill="#c7dbe4"></rect><path d="M0 324L30 339.5C60 355 120 386 180 400.3C240 414.7 300 412.3 360 401.3C420 390.3 480 370.7 540 372.3C600 374 660 397 720 397.7C780 398.3 840 376.7 870 365.8L900 355L900 601L870 601C840 601 780 601 720 601C660 601 600 601 540 601C480 601 420 601 360 601C300 601 240 601 180 601C120 601 60 601 30 601L0 601Z" fill="#69befa"></path><path d="M0 371L30 383.7C60 396.3 120 421.7 180 436.3C240 451 300 455 360 459.3C420 463.7 480 468.3 540 453.2C600 438 660 403 720 391C780 379 840 390 870 395.5L900 401L900 601L870 601C840 601 780 601 720 601C660 601 600 601 540 601C480 601 420 601 360 601C300 601 240 601 180 601C120 601 60 601 30 601L0 601Z" fill="#1d94f6"></path><path d="M0 479L30 471.5C60 464 120 449 180 449.5C240 450 300 466 360 467.2C420 468.3 480 454.7 540 453C600 451.3 660 461.7 720 466.2C780 470.7 840 469.3 870 468.7L900 468L900 601L870 601C840 601 780 601 720 601C660 601 600 601 540 601C480 601 420 601 360 601C300 601 240 601 180 601C120 601 60 601 30 601L0 601Z" fill="#1164e7"></path><path d="M0 532L30 533.2C60 534.3 120 536.7 180 533.7C240 530.7 300 522.3 360 520.2C420 518 480 522 540 520.8C600 519.7 660 513.3 720 516.3C780 519.3 840 531.7 870 537.8L900 544L900 601L870 601C840 601 780 601 720 601C660 601 600 601 540 601C480 601 420 601 360 601C300 601 240 601 180 601C120 601 60 601 30 601L0 601Z" fill="#4924c7"></path></svg>