<svg id="visual" viewBox="0 0 2000 1000" width="2000" height="1000" xmlns="http://www.w3.org/2000/svg" xmlns:xlink="http://www.w3.org/1999/xlink" version="1.1"><rect x="0" y="0" width="2000" height="1000" fill="#C62368"></rect><path d="M0 369L33.3 369C66.7 369 133.3 369 200 364.3C266.7 359.7 333.3 350.3 400 340C466.7 329.7 533.3 318.3 600 310.3C666.7 302.3 733.3 297.7 800 305.8C866.7 314 933.3 335 1000 353.3C1066.7 371.7 1133.3 387.3 1200 382.7C1266.7 378 1333.3 353 1400 354.7C1466.7 356.3 1533.3 384.7 1600 395C1666.7 405.3 1733.3 397.7 1800 382C1866.7 366.3 1933.3 342.7 1966.7 330.8L2000 319L2000 0L1966.7 0C1933.3 0 1866.7 0 1800 0C1733.3 0 1666.7 0 1600 0C1533.3 0 1466.7 0 1400 0C1333.3 0 1266.7 0 1200 0C1133.3 0 1066.7 0 1000 0C933.3 0 866.7 0 800 0C733.3 0 666.7 0 600 0C533.3 0 466.7 0 400 0C333.3 0 266.7 0 200 0C133.3 0 66.7 0 33.3 0L0 0Z" fill="#c62368"></path><path d="M0 258L33.3 267.5C66.7 277 133.3 296 200 297C266.7 298 333.3 281 400 290.5C466.7 300 533.3 336 600 345.5C666.7 355 733.3 338 800 328.3C866.7 318.7 933.3 316.3 1000 321.7C1066.7 327 1133.3 340 1200 349.2C1266.7 358.3 1333.3 363.7 1400 352C1466.7 340.3 1533.3 311.7 1600 293.2C1666.7 274.7 1733.3 266.3 1800 270.5C1866.7 274.7 1933.3 291.3 1966.7 299.7L2000 308L2000 0L1966.7 0C1933.3 0 1866.7 0 1800 0C1733.3 0 1666.7 0 1600 0C1533.3 0 1466.7 0 1400 0C1333.3 0 1266.7 0 1200 0C1133.3 0 1066.7 0 1000 0C933.3 0 866.7 0 800 0C733.3 0 666.7 0 600 0C533.3 0 466.7 0 400 0C333.3 0 266.7 0 200 0C133.3 0 66.7 0 33.3 0L0 0Z" fill="#9f2871"></path><path d="M0 245L33.3 250C66.7 255 133.3 265 200 266.2C266.7 267.3 333.3 259.7 400 249.2C466.7 238.7 533.3 225.3 600 231.3C666.7 237.3 733.3 262.7 800 263C866.7 263.3 933.3 238.7 1000 230C1066.7 221.3 1133.3 228.7 1200 240.2C1266.7 251.7 1333.3 267.3 1400 265.8C1466.7 264.3 1533.3 245.7 1600 235.8C1666.7 226 1733.3 225 1800 230.8C1866.7 236.7 1933.3 249.3 1966.7 255.7L2000 262L2000 0L1966.7 0C1933.3 0 1866.7 0 1800 0C1733.3 0 1666.7 0 1600 0C1533.3 0 1466.7 0 1400 0C1333.3 0 1266.7 0 1200 0C1133.3 0 1066.7 0 1000 0C933.3 0 866.7 0 800 0C733.3 0 666.7 0 600 0C533.3 0 466.7 0 400 0C333.3 0 266.7 0 200 0C133.3 0 66.7 0 33.3 0L0 0Z" fill="#742d71"></path><path d="M0 211L33.3 210.8C66.7 210.7 133.3 210.3 200 207.8C266.7 205.3 333.3 200.7 400 204.5C466.7 208.3 533.3 220.7 600 219.3C666.7 218 733.3 203 800 202.3C866.7 201.7 933.3 215.3 1000 214.2C1066.7 213 1133.3 197 1200 200.8C1266.7 204.7 1333.3 228.3 1400 227.3C1466.7 226.3 1533.3 200.7 1600 198.7C1666.7 196.7 1733.3 218.3 1800 224.7C1866.7 231 1933.3 222 1966.7 217.5L2000 213L2000 0L1966.7 0C1933.3 0 1866.7 0 1800 0C1733.3 0 1666.7 0 1600 0C1533.3 0 1466.7 0 1400 0C1333.3 0 1266.7 0 1200 0C1133.3 0 1066.7 0 1000 0C933.3 0 866.7 0 800 0C733.3 0 666.7 0 600 0C533.3 0 466.7 0 400 0C333.3 0 266.7 0 200 0C133.3 0 66.7 0 33.3 0L0 0Z" fill="#4b2d66"></path><path d="M0 154L33.3 150.2C66.7 146.3 133.3 138.7 200 146C266.7 153.3 333.3 175.7 400 176.8C466.7 178 533.3 158 600 153.5C666.7 149 733.3 160 800 159C866.7 158 933.3 145 1000 146C1066.7 147 1133.3 162 1200 165C1266.7 168 1333.3 159 1400 154.5C1466.7 150 1533.3 150 1600 156.7C1666.7 163.3 1733.3 176.7 1800 175.2C1866.7 173.7 1933.3 157.3 1966.7 149.2L2000 141L2000 0L1966.7 0C1933.3 0 1866.7 0 1800 0C1733.3 0 1666.7 0 1600 0C1533.3 0 1466.7 0 1400 0C1333.3 0 1266.7 0 1200 0C1133.3 0 1066.7 0 1000 0C933.3 0 866.7 0 800 0C733.3 0 666.7 0 600 0C533.3 0 466.7 0 400 0C333.3 0 266.7 0 200 0C133.3 0 66.7 0 33.3 0L0 0Z" fill="#262853"></path><path d="M0 145L33.3 143C66.7 141 133.3 137 200 127.3C266.7 117.7 333.3 102.3 400 99.3C466.7 96.3 533.3 105.7 600 107.7C666.7 109.7 733.3 104.3 800 102.3C866.7 100.3 933.3 101.7 1000 106C1066.7 110.3 1133.3 117.7 1200 122.3C1266.7 127 1333.3 129 1400 122C1466.7 115 1533.3 99 1600 101.2C1666.7 103.3 1733.3 123.7 1800 127.5C1866.7 131.3 1933.3 118.7 1966.7 112.3L2000 106L2000 0L1966.7 0C1933.3 0 1866.7 0 1800 0C1733.3 0 1666.7 0 1600 0C1533.3 0 1466.7 0 1400 0C1333.3 0 1266.7 0 1200 0C1133.3 0 1066.7 0 1000 0C933.3 0 866.7 0 800 0C733.3 0 666.7 0 600 0C533.3 0 466.7 0 400 0C333.3 0 266.7 0 200 0C133.3 0 66.7 0 33.3 0L0 0Z" fill="#0b1f3a"></path><path d="M0 90L33.3 85.2C66.7 80.3 133.3 70.7 200 66.2C266.7 61.7 333.3 62.3 400 67.3C466.7 72.3 533.3 81.7 600 79.5C666.7 77.3 733.3 63.7 800 62C866.7 60.3 933.3 70.7 1000 74.3C1066.7 78 1133.3 75 1200 70.3C1266.7 65.7 1333.3 59.3 1400 61.8C1466.7 64.3 1533.3 75.7 1600 79C1666.7 82.3 1733.3 77.7 1800 73.5C1866.7 69.3 1933.3 65.7 1966.7 63.8L2000 62L2000 0L1966.7 0C1933.3 0 1866.7 0 1800 0C1733.3 0 1666.7 0 1600 0C1533.3 0 1466.7 0 1400 0C1333.3 0 1266.7 0 1200 0C1133.3 0 1066.7 0 1000 0C933.3 0 866.7 0 800 0C733.3 0 666.7 0 600 0C533.3 0 466.7 0 400 0C333.3 0 266.7 0 200 0C133.3 0 66.7 0 33.3 0L0 0Z" fill="#001220"></path></svg>