<svg id="visual" viewBox="0 0 900 600" width="900" height="600" xmlns="http://www.w3.org/2000/svg" xmlns:xlink="http://www.w3.org/1999/xlink" version="1.1"><rect x="0" y="0" width="900" height="600" fill="#5398de"></rect><path d="M0 389L129 394L257 438L386 401L514 405L643 412L771 432L900 395L900 601L771 601L643 601L514 601L386 601L257 601L129 601L0 601Z" fill="#56b2d7"></path><path d="M0 415L129 449L257 410L386 473L514 430L643 473L771 439L900 410L900 601L771 601L643 601L514 601L386 601L257 601L129 601L0 601Z" fill="#2da4de"></path><path d="M0 455L129 467L257 449L386 462L514 450L643 471L771 471L900 485L900 601L771 601L643 601L514 601L386 601L257 601L129 601L0 601Z" fill="#0095e4"></path><path d="M0 519L129 511L257 490L386 522L514 487L643 507L771 526L900 531L900 601L771 601L643 601L514 601L386 601L257 601L129 601L0 601Z" fill="#0084e7"></path><path d="M0 528L129 535L257 534L386 548L514 542L643 540L771 551L900 553L900 601L771 601L643 601L514 601L386 601L257 601L129 601L0 601Z" fill="#2170e5"></path></svg>